<?xml version="1.0" standalone="no"?><!DOCTYPE svg PUBLIC "-//W3C//DTD SVG 1.1//EN" "http://www.w3.org/Graphics/SVG/1.1/DTD/svg11.dtd"><svg t="1562901362019" class="icon" viewBox="0 0 1024 1024" version="1.1" xmlns="http://www.w3.org/2000/svg" p-id="1985" xmlns:xlink="http://www.w3.org/1999/xlink" width="128" height="128"><defs><style type="text/css"></style></defs><path d="M632.8 768c-3.6 0-7.3-1.4-10-4.2L381.2 522.1c-2.8-2.8-4.2-6.4-4.2-10.1 0-3.6 1.4-7.3 4.2-10.1l241.6-241.8c5.6-5.6 14.5-5.6 20.1 0 5.6 5.6 5.6 14.6 0 20.1L411.3 512l231.5 231.7c2.8 2.8 4.2 6.4 4.2 10.1 0 3.6-1.4 7.3-4.2 10.1-2.7 2.7-6.4 4.1-10 4.1z" p-id="1986"></path></svg>