<?xml version="1.0" standalone="no"?><!DOCTYPE svg PUBLIC "-//W3C//DTD SVG 1.1//EN" "http://www.w3.org/Graphics/SVG/1.1/DTD/svg11.dtd"><svg t="1563169595365" class="icon" viewBox="0 0 1024 1024" version="1.1" xmlns="http://www.w3.org/2000/svg" p-id="1997" xmlns:xlink="http://www.w3.org/1999/xlink" width="128" height="128"><defs><style type="text/css"></style></defs><path d="M511.98158 0.176009c-211.783451 0-383.854435 171.890882-383.854434 383.031696 0 69.508074 19.050891 136.25936 53.142337 194.020902 37.995359 64.352657 311.768653 435.100586 311.768653 435.100586 3.616364 7.018857 11.100826 11.494799 18.97926 11.494798 7.913227 0 15.148002-4.440126 18.97926-11.494798 0 0 273.808086-370.892215 311.695998-435.135378 34.128285-57.834196 53.179177-124.621299 53.179177-193.98611 0-211.140815-172.356486-383.031697-383.890251-383.031696m0 511.017626c-70.581522 0-127.95216-57.619302-127.95216-127.952161 0-70.618361 57.404408-127.95216 127.95216-127.95216 70.583568 0 127.95216 57.369615 127.952161 127.95216 0 70.333882-57.3338 127.95216-127.952161 127.952161m0 0z" fill="" p-id="1998"></path></svg>