<?xml version="1.0" standalone="no"?><!DOCTYPE svg PUBLIC "-//W3C//DTD SVG 1.1//EN" "http://www.w3.org/Graphics/SVG/1.1/DTD/svg11.dtd"><svg t="1576899701534" class="icon" viewBox="0 0 1024 1024" version="1.1" xmlns="http://www.w3.org/2000/svg" p-id="2552" xmlns:xlink="http://www.w3.org/1999/xlink" width="22" height="22"><defs><style type="text/css">path {fill:#fff;}</style></defs><path d="M486.122985 148.982276C297.075428 148.982276 143.287508 302.771412 143.287508 491.801941c0 189.029313 153.78792 342.835477 342.835477 342.835477 189.029313 0 342.818449-153.806165 342.818449-342.835477C828.941434 302.771412 675.169326 148.982276 486.122985 148.982276zM486.122985 796.102256c-167.796173 0-304.299098-136.505358-304.299098-304.300315 0-167.792524 136.502926-304.283286 304.299098-304.283286 167.777928 0 304.283286 136.490762 304.283286 304.283286C790.406272 659.596897 653.917942 796.102256 486.122985 796.102256z" p-id="2553"></path><path d="M483.447101 185.045894" p-id="2554"></path><path d="M151.203259 320.207229" p-id="2555"></path><path d="M864.351894 870.597651c8.256319-7.642082 8.883935-20.395101 1.397541-28.484785L739.102277 701.841808c-7.486394-8.088468-20.247928-8.452145-28.509112-0.808847l0 0c-8.256319 7.642082-8.883935 20.397534-1.398758 28.484785l126.650807 140.26984C843.32796 877.876055 856.093143 878.240948 864.351894 870.597651L864.351894 870.597651z" p-id="2556"></path><path d="M880.362195 855.663785l-0.021894 0.019461 0.372191 0.402599C880.593294 855.945969 880.487475 855.798796 880.362195 855.663785z" p-id="2557"></path></svg>