<?xml version="1.0" standalone="no"?><!DOCTYPE svg PUBLIC "-//W3C//DTD SVG 1.1//EN" "http://www.w3.org/Graphics/SVG/1.1/DTD/svg11.dtd"><svg t="1563169615980" class="icon" viewBox="0 0 1024 1024" version="1.1" xmlns="http://www.w3.org/2000/svg" p-id="3330" xmlns:xlink="http://www.w3.org/1999/xlink" width="128" height="128"><defs><style type="text/css"></style></defs><path d="M719.0528 921.6l-4.096-0.1024c-95.6416-5.0176-224.768-97.5872-345.4976-247.6032l-44.544-55.3984C204.1344 468.48 140.9024 321.9456 155.648 226.5088 166.144 159.232 263.4752 102.4 319.0272 102.4c27.392 0 37.376 14.0288 40.8064 22.3744 31.488 57.5488 70.4 157.5936 70.6048 193.4848v2.56l-0.8704 2.3552c-6.9632 18.8928-22.528 27.904-36.1984 35.84-18.0736 10.5472-28.3136 17.408-29.5424 37.2736-0.4096 5.9904 4.608 33.3824 84.2752 134.3488l34.048 42.2912c79.872 96.9216 104.96 107.3664 110.848 108.2368 19.3024 2.7648 28.3648-5.9392 42.1888-21.5552 10.5472-11.8784 22.528-25.3952 42.24-28.3648l2.5088-0.3584 2.4576 0.512c34.816 7.5776 123.8016 66.56 174.336 110.3872 7.2704 4.9664 20.0192 19.7632 9.9328 52.4288C850.8416 845.5168 781.8752 921.6 719.0528 921.6z" fill="#4A4A4A" p-id="3331"></path></svg>