<?xml version="1.0" encoding="utf-8"?>
<!-- Generator: Adobe Illustrator 21.0.0, SVG Export Plug-In . SVG Version: 6.00 Build 0)  -->
<svg version="1.1" id="图层_1" xmlns="http://www.w3.org/2000/svg" xmlns:xlink="http://www.w3.org/1999/xlink" x="0px" y="0px"
	 viewBox="0 0 25.5 26" style="enable-background:new 0 0 25.5 26;" xml:space="preserve">
<style type="text/css">
	.st0{fill:#48985f;}
</style>
<title>资源 1</title>
<g id="图层_2">
	<g id="图层_1-2">
		<polygon class="st0" points="3.7,11.7 3.6,11.5 3.6,11.3 3.5,11.2 3.5,11.1 3.5,10.9 3.5,10.8 3.6,10.6 3.6,10.4 3.7,10.2 3.8,10 
			3.9,9.8 4.1,9.6 4.1,9.4 4.1,9.3 4.1,9.1 4.2,8.8 4.2,8.6 4.3,8.5 4.3,8.4 4.4,8.3 4.5,8.2 4.5,8 4.5,7.8 4.5,7.6 4.5,7.3 4.6,7 
			4.7,6.6 4.8,6.2 4.9,6 4.9,5.7 5,5.5 5.2,5.2 5.3,5 5.4,4.7 5.5,4.4 5.7,4.2 5.8,4 5.9,3.9 6.1,3.6 6.3,3.3 6.5,3 6.8,2.8 
			7.1,2.5 7.3,2.2 7.7,1.9 7.9,1.7 8.1,1.5 8.4,1.3 8.7,1.1 9,1 9.3,0.8 9.6,0.7 10,0.6 10.3,0.4 10.6,0.3 11,0.3 11.4,0.2 
			11.8,0.1 12.1,0.1 12.5,0 12.9,0 13.3,0 13.7,0 14.1,0 14.5,0.1 14.9,0.1 15.3,0.1 15.6,0.2 16,0.3 16.4,0.4 16.8,0.5 17.2,0.6 
			17.5,0.8 17.9,1 18.3,1.1 18.6,1.3 18.9,1.5 19.2,1.7 19.3,1.8 19.5,1.9 19.8,2.2 20,2.4 20.2,2.6 20.4,2.8 20.6,3.1 20.8,3.3 
			20.9,3.6 21.1,3.8 21.2,4.1 21.4,4.3 21.6,4.8 21.7,5.1 21.8,5.3 21.9,5.6 22,5.9 22,6.1 22.1,6.3 22.2,6.8 22.3,7.2 22.3,7.5 
			22.4,7.8 22.4,8.3 22.5,8.4 22.5,8.5 22.7,8.7 22.8,8.9 22.8,9 23,9.2 23,9.4 23.1,9.7 23.2,9.9 23.2,10.1 23.2,10.3 23.3,10.4 
			23.3,10.6 23.2,10.7 23.2,10.9 23.2,11 23.1,11.3 23,11.5 23,11.6 23,11.7 23,11.7 23.1,11.9 23.5,12.4 23.7,12.8 23.9,13 
			24,13.3 24.2,13.6 24.4,13.9 24.5,14.3 24.7,14.7 24.9,15 25,15.2 25,15.5 25.1,15.8 25.2,16 25.3,16.2 25.4,16.7 25.4,17.2 
			25.5,17.6 25.5,17.8 25.5,18 25.5,18.2 25.4,18.4 25.4,18.8 25.3,19.1 25.2,19.4 25.2,19.5 25.1,19.6 25.1,19.7 25,19.9 
			24.9,19.9 24.9,20 24.8,20.1 24.7,20.2 24.6,20.2 24.5,20.3 24.5,20.3 24.4,20.3 24.3,20.3 24.3,20.3 24.1,20.2 24.1,20.1 
			24,20.1 24,20 23.9,20 23.8,19.9 23.6,19.7 23.5,19.5 23.4,19.3 23.3,19.2 23.2,18.9 23,18.5 23,18.5 23,18.5 22.9,18.6 
			22.8,18.6 22.8,18.8 22.7,19.1 22.5,19.5 22.3,20 22.1,20.3 21.9,20.6 21.7,20.9 21.5,21.2 21.4,21.4 21.3,21.5 21,21.8 21,21.8 
			21,21.9 21.2,22 21.8,22.3 22.1,22.4 22.4,22.6 22.6,22.8 22.9,23 23,23.1 23.1,23.2 23.2,23.3 23.2,23.4 23.3,23.5 23.3,23.7 
			23.4,23.8 23.4,23.9 23.4,24 23.4,24.1 23.3,24.2 23.3,24.3 23.3,24.3 23.2,24.4 23.1,24.6 23,24.7 22.9,24.8 22.8,24.9 22.7,25 
			22.5,25.1 22.2,25.2 22,25.3 21.8,25.4 21.6,25.5 21.5,25.5 21.2,25.6 20.9,25.6 20.6,25.7 20.2,25.8 19.9,25.8 19.5,25.8 
			19.2,25.8 18.8,25.8 18.4,25.8 18,25.8 17.7,25.8 17.3,25.7 16.9,25.6 16.5,25.6 16,25.5 15.7,25.4 15.3,25.3 14.9,25.2 14.5,25 
			14.3,25 14.1,24.9 14,24.9 13.9,24.8 13.7,24.8 13.5,24.8 13.1,24.8 12.9,24.8 12.7,24.8 12.5,24.9 12.3,25 12,25.2 11.7,25.4 
			11.5,25.5 11.3,25.5 10.9,25.7 10.6,25.8 10.3,25.9 10,25.9 9.8,25.9 9.5,26 9.3,26 9,26 8.7,26 8.4,26 7.8,26 7.1,26 6.5,25.9 
			6.2,25.9 5.8,25.8 5.5,25.8 5.2,25.7 4.9,25.6 4.7,25.6 4.4,25.5 4.2,25.4 3.9,25.2 3.7,25.1 3.5,25 3.5,24.9 3.4,24.8 3.3,24.8 
			3.2,24.7 3.2,24.6 3.2,24.5 3.1,24.3 3.1,24.2 3,24.1 3,24 3.1,23.9 3.1,23.8 3.1,23.7 3.1,23.6 3.1,23.5 3.1,23.4 3.2,23.2 
			3.2,23.1 3.3,23 3.3,22.9 3.4,22.8 3.5,22.7 3.6,22.6 3.7,22.5 3.8,22.5 3.9,22.4 4,22.4 4.2,22.3 4.3,22.2 4.5,22.2 4.6,22.2 
			4.8,22.1 5,22.1 5.2,22.1 5.3,22.1 5.3,22.1 5.3,22.1 5.3,22 5.3,22 5.2,21.9 4.9,21.7 4.7,21.5 4.5,21.3 4.2,21.1 4,20.8 
			3.7,20.5 3.6,20.3 3.5,20.1 3.4,20 3.3,19.7 3.1,19.5 3,19.3 2.9,19 2.8,18.8 2.8,18.5 2.7,18.2 2.7,18.2 2.6,18.2 2.6,18.1 
			2.6,18.1 2.5,18.2 2.5,18.2 2.5,18.2 2.5,18.3 2.5,18.4 2.4,18.5 2.3,18.7 2.2,18.8 2.1,19 2,19.1 1.9,19.3 1.7,19.4 1.6,19.6 
			1.4,19.7 1.3,19.8 1.1,19.9 0.9,20 0.7,20 0.5,20 0.5,20 0.5,20 0.4,20 0.4,20 0.3,19.9 0.2,19.7 0.2,19.6 0.2,19.5 0.1,19.3 
			0.1,19.2 0,18.9 0,18.6 0,18.5 0,18 0,17.5 0.1,17.3 0.1,17 0.2,16.8 0.2,16.5 0.3,16.2 0.4,15.9 0.5,15.6 0.6,15.3 0.8,15.1 
			0.9,14.7 1.1,14.4 1.3,14.1 1.5,13.9 1.7,13.5 1.9,13.3 2.1,13.1 2.3,12.8 2.5,12.7 2.6,12.6 2.8,12.4 3,12.2 3.3,11.9 3.6,11.8 
					"/>
	</g>
</g>
</svg>
