<svg xmlns="http://www.w3.org/2000/svg" viewBox="0 0 25.47 26"><defs><style>.cls-1{fill:#666666;fill-rule:evenodd;}</style></defs><title>我</title><g id="图层_2" data-name="图层 2"><g id="图层_1-2" data-name="图层 1"><polygon class="cls-1" points="3.65 11.69 3.6 11.54 3.56 11.34 3.53 11.23 3.53 11.1 3.53 10.93 3.53 10.79 3.58 10.61 3.63 10.43 3.69 10.23 3.78 10.02 3.89 9.79 4.05 9.57 4.05 9.41 4.06 9.27 4.09 9.06 4.15 8.84 4.22 8.6 4.27 8.49 4.32 8.38 4.4 8.27 4.48 8.18 4.48 8.02 4.48 7.84 4.48 7.63 4.53 7.34 4.57 7.01 4.66 6.61 4.77 6.2 4.86 5.97 4.94 5.72 5.04 5.49 5.15 5.24 5.26 4.97 5.39 4.72 5.54 4.45 5.72 4.18 5.81 4.02 5.9 3.9 6.1 3.61 6.3 3.32 6.53 3.03 6.78 2.75 7.05 2.46 7.33 2.17 7.67 1.86 7.89 1.67 8.15 1.47 8.42 1.29 8.71 1.11 8.98 0.96 9.3 0.83 9.63 0.67 9.96 0.56 10.29 0.45 10.64 0.34 11 0.26 11.38 0.18 11.75 0.12 12.13 0.07 12.5 0.02 12.9 0 13.28 0 13.67 0 14.08 0 14.47 0.05 14.87 0.1 15.27 0.14 15.64 0.23 16.04 0.31 16.41 0.41 16.81 0.52 17.18 0.65 17.54 0.8 17.92 0.96 18.26 1.13 18.6 1.32 18.93 1.54 19.21 1.73 19.34 1.84 19.48 1.93 19.75 2.15 19.97 2.37 20.19 2.59 20.41 2.84 20.58 3.08 20.8 3.32 20.94 3.59 21.09 3.83 21.25 4.1 21.38 4.34 21.61 4.85 21.71 5.11 21.8 5.35 21.89 5.61 21.96 5.86 22.02 6.07 22.08 6.32 22.2 6.77 22.28 7.16 22.33 7.54 22.38 7.84 22.44 8.31 22.46 8.38 22.51 8.47 22.66 8.71 22.75 8.87 22.84 9.04 22.95 9.22 23.04 9.44 23.1 9.66 23.17 9.9 23.22 10.15 23.24 10.28 23.26 10.43 23.26 10.56 23.24 10.69 23.24 10.85 23.2 11.01 23.13 11.32 23.05 11.47 22.99 11.64 22.99 11.69 23.02 11.74 23.1 11.87 23.45 12.38 23.72 12.77 23.85 13.03 24.03 13.31 24.18 13.62 24.36 13.95 24.54 14.32 24.74 14.74 24.85 15 24.96 15.25 25.05 15.52 25.14 15.76 25.2 16.01 25.27 16.24 25.36 16.7 25.42 17.17 25.47 17.59 25.47 17.82 25.47 18 25.47 18.18 25.44 18.39 25.39 18.75 25.33 19.07 25.24 19.36 25.2 19.48 25.14 19.63 25.08 19.73 25 19.85 24.94 19.93 24.85 20.03 24.78 20.11 24.7 20.18 24.6 20.22 24.52 20.26 24.45 20.29 24.39 20.29 24.34 20.29 24.27 20.26 24.14 20.2 24.08 20.15 24.02 20.11 23.95 20.05 23.88 19.98 23.76 19.85 23.63 19.67 23.52 19.48 23.41 19.33 23.31 19.16 23.16 18.85 22.99 18.53 22.97 18.52 22.95 18.52 22.88 18.57 22.84 18.65 22.77 18.76 22.66 19.07 22.49 19.51 22.27 20.05 22.11 20.31 21.93 20.59 21.73 20.9 21.51 21.21 21.4 21.35 21.27 21.5 20.96 21.8 20.98 21.83 21.03 21.87 21.18 21.96 21.83 22.27 22.11 22.43 22.38 22.59 22.64 22.78 22.88 22.98 22.99 23.07 23.08 23.17 23.17 23.29 23.24 23.43 23.28 23.53 23.33 23.66 23.35 23.78 23.37 23.91 23.35 24 23.35 24.08 23.33 24.18 23.28 24.26 23.26 24.33 23.22 24.41 23.1 24.57 22.99 24.7 22.91 24.79 22.84 24.86 22.66 24.99 22.46 25.1 22.24 25.21 22.02 25.32 21.76 25.42 21.62 25.46 21.5 25.49 21.2 25.56 20.89 25.63 20.58 25.7 20.25 25.75 19.9 25.76 19.55 25.81 19.19 25.81 18.82 25.81 18.44 25.81 18.04 25.78 17.67 25.75 17.27 25.7 16.88 25.65 16.46 25.59 16.05 25.49 15.66 25.42 15.27 25.3 14.87 25.16 14.47 25.04 14.26 24.97 14.08 24.91 13.96 24.86 13.85 24.84 13.7 24.84 13.52 24.84 13.14 24.81 12.95 24.79 12.7 24.76 12.54 24.91 12.32 25.04 12.03 25.18 11.71 25.36 11.51 25.46 11.3 25.54 10.85 25.72 10.6 25.78 10.34 25.85 9.98 25.92 9.76 25.94 9.52 25.96 9.27 25.99 8.98 26 8.71 26 8.42 26 7.8 26 7.14 25.99 6.49 25.92 6.16 25.88 5.85 25.83 5.54 25.78 5.23 25.72 4.94 25.63 4.66 25.56 4.4 25.46 4.15 25.36 3.93 25.25 3.73 25.14 3.53 24.99 3.47 24.92 3.38 24.84 3.31 24.76 3.25 24.68 3.2 24.59 3.15 24.51 3.09 24.33 3.07 24.23 3.04 24.13 3.04 24.04 3.07 23.93 3.07 23.82 3.09 23.71 3.09 23.64 3.09 23.49 3.1 23.38 3.15 23.25 3.2 23.11 3.27 22.96 3.33 22.89 3.38 22.83 3.5 22.68 3.6 22.6 3.69 22.54 3.78 22.48 3.91 22.43 4.02 22.37 4.15 22.3 4.31 22.25 4.46 22.2 4.64 22.17 4.81 22.14 5.01 22.12 5.23 22.1 5.29 22.08 5.3 22.08 5.33 22.06 5.33 22.03 5.29 21.98 5.17 21.92 4.88 21.67 4.69 21.52 4.46 21.32 4.24 21.1 4 20.82 3.73 20.5 3.63 20.33 3.49 20.15 3.38 19.95 3.27 19.73 3.13 19.51 3.04 19.27 2.94 19.03 2.83 18.76 2.75 18.5 2.67 18.18 2.65 18.17 2.63 18.17 2.61 18.14 2.59 18.14 2.54 18.17 2.52 18.18 2.49 18.23 2.48 18.3 2.45 18.36 2.41 18.45 2.28 18.69 2.21 18.83 2.1 18.95 1.98 19.1 1.86 19.27 1.72 19.42 1.56 19.56 1.42 19.69 1.26 19.8 1.08 19.91 0.91 19.98 0.71 20.03 0.51 20.05 0.49 20.05 0.46 20.05 0.42 20.03 0.38 19.95 0.32 19.91 0.25 19.73 0.2 19.63 0.15 19.48 0.11 19.33 0.09 19.18 0.02 18.85 0 18.65 0 18.45 0 18 0.02 17.52 0.06 17.27 0.11 17.02 0.15 16.75 0.23 16.49 0.31 16.2 0.39 15.91 0.51 15.62 0.62 15.34 0.77 15.05 0.91 14.74 1.08 14.45 1.28 14.14 1.48 13.86 1.7 13.54 1.87 13.33 2.1 13.08 2.34 12.83 2.45 12.71 2.59 12.57 2.78 12.4 2.98 12.23 3.31 11.93 3.56 11.75 3.65 11.69"/></g></g></svg>