<svg xmlns="http://www.w3.org/2000/svg" viewBox="0 0 64 52.14"><defs><style>.cls-1{fill:#007F68;}</style></defs><title>资源 3</title><g id="图层_2" data-name="图层 2"><g id="图层_1-2" data-name="图层 1"><path class="cls-1" d="M43.32,15.77a20,20,0,0,1,2.19.14C43.55,6.78,33.79,0,22.65,0,10.2,0,0,8.48,0,19.26c0,6.22,3.39,11.33,9.06,15.3L6.8,41.37l7.92-4a39,39,0,0,0,7.93,1.13c.71,0,1.42,0,2.11-.08a17,17,0,0,1-.7-4.75c0-9.9,8.5-17.93,19.26-17.93M31.14,9.63A2.67,2.67,0,0,1,34,12.46a2.67,2.67,0,0,1-2.84,2.83c-1.69,0-3.4-1.14-3.4-2.83s1.7-2.83,3.4-2.83M15.29,15.29c-1.7,0-3.41-1.14-3.41-2.83s1.71-2.83,3.41-2.83a2.66,2.66,0,0,1,2.83,2.83,2.67,2.67,0,0,1-2.83,2.83"/><path class="cls-1" d="M64,33.43C64,24.37,54.94,17,44.76,17,34,17,25.49,24.38,25.49,33.43S34,49.86,44.76,49.86a28.46,28.46,0,0,0,6.8-1.13l6.21,3.41-1.7-5.66c4.55-3.42,7.94-7.94,7.94-13M38.51,30.59a2.43,2.43,0,0,1-2.26-2.26,2.44,2.44,0,0,1,2.26-2.26,2.58,2.58,0,0,1,2.84,2.26,2.57,2.57,0,0,1-2.84,2.26m12.46,0a2.43,2.43,0,0,1-2.25-2.26A2.44,2.44,0,0,1,51,26.06a2.59,2.59,0,0,1,2.84,2.26A2.58,2.58,0,0,1,51,30.59"/></g></g></svg>