<svg xmlns="http://www.w3.org/2000/svg" viewBox="0 0 64 51.83"><defs><style>.cls-1{fill:#007F68;}</style></defs><title>33 </title><g id="图层_2" data-name="图层 2"><g id="图层_1-2" data-name="图层 1"><path class="cls-1" d="M51.73,26.62a15.72,15.72,0,0,0-3.68-1.68l-.61-.21a1.84,1.84,0,0,1-.43-.27.37.37,0,0,1-.16-.45A4,4,0,0,0,47,23.3q1.61-4.11,0-6.35t-5.46-2.18a22.94,22.94,0,0,0-8.78,2.11l-.21.07a4,4,0,0,1-.48.12,1.52,1.52,0,0,1-.52,0,.44.44,0,0,1-.36-.25,1.07,1.07,0,0,1,0-.71q1.61-5.18-.71-7.46Q27.88,6,21.72,8.41A36.05,36.05,0,0,0,9.53,16.84a39.64,39.64,0,0,0-7.05,9.21A18.65,18.65,0,0,0,0,34.8a12,12,0,0,0,2.32,7.12,18.34,18.34,0,0,0,6.12,5.39A34.87,34.87,0,0,0,17,50.63a40.35,40.35,0,0,0,9.82,1.2,41.35,41.35,0,0,0,9.66-1.11,33.34,33.34,0,0,0,8.07-3,30.05,30.05,0,0,0,6-4.2,17.66,17.66,0,0,0,3.89-4.89,10.8,10.8,0,0,0,1.32-5,7.48,7.48,0,0,0-1.21-4.16A9.38,9.38,0,0,0,51.73,26.62ZM40.08,43A24.45,24.45,0,0,1,26.88,48a27.16,27.16,0,0,1-9.8-.75A17.54,17.54,0,0,1,9.64,43.4a9.31,9.31,0,0,1-3.18-6.07q-.5-5.21,4.73-9.44a24.44,24.44,0,0,1,13.19-5.05,27.15,27.15,0,0,1,9.8.75,17.54,17.54,0,0,1,7.44,3.89,9.31,9.31,0,0,1,3.18,6.07Q45.31,38.76,40.08,43Z"/><path class="cls-1" d="M27.92,28.19a11.27,11.27,0,0,0-7.52.68,10.58,10.58,0,0,0-5.41,5,7.58,7.58,0,0,0-.23,6.69A8.07,8.07,0,0,0,20,45a11.09,11.09,0,0,0,8-.43,10.24,10.24,0,0,0,5.64-5.36,7.41,7.41,0,0,0-.09-6.8A8.44,8.44,0,0,0,27.92,28.19ZM24.1,39.76a4.12,4.12,0,0,1-2.23,1.7,3.47,3.47,0,0,1-2.66-.09,2.67,2.67,0,0,1-1.53-1.8,3,3,0,0,1,.46-2.44,3.92,3.92,0,0,1,2.14-1.64,3.63,3.63,0,0,1,2.61,0,2.67,2.67,0,0,1,1.61,1.78A3,3,0,0,1,24.1,39.76Zm3.36-4.32a1.4,1.4,0,0,1-.79.66,1.48,1.48,0,0,1-1,0q-1.07-.5-.46-1.61a1.41,1.41,0,0,1,.77-.66,1.43,1.43,0,0,1,1,0,1,1,0,0,1,.63.66A1.08,1.08,0,0,1,27.46,35.44Z"/><path class="cls-1" d="M51,19.78a2.09,2.09,0,0,0,1.21,1.05,2.05,2.05,0,0,0,1.59-.14,2.08,2.08,0,0,0,1.05-1.21,7.92,7.92,0,0,0,.23-4.19,8.15,8.15,0,0,0-1.94-3.87,8,8,0,0,0-3.61-2.34,8.18,8.18,0,0,0-4.25-.2A2,2,0,0,0,44,9.79a2.07,2.07,0,0,0-.28,1.59,1.85,1.85,0,0,0,.89,1.32A2.13,2.13,0,0,0,46.2,13,3.83,3.83,0,0,1,50,14.23a3.8,3.8,0,0,1,.86,4A2,2,0,0,0,51,19.78Z"/><path class="cls-1" d="M63.64,13.54a16.48,16.48,0,0,0-4-7.94A16.32,16.32,0,0,0,52.2.79,17,17,0,0,0,43.48.38a2.39,2.39,0,0,0-1.55,1.05,2.33,2.33,0,0,0-.34,1.84,2.37,2.37,0,0,0,1.07,1.55,2.38,2.38,0,0,0,1.86.34,12.24,12.24,0,0,1,6.18.3A11.58,11.58,0,0,1,56,8.88a11.61,11.61,0,0,1,2.86,5.64,11.62,11.62,0,0,1-.36,6.14,2.49,2.49,0,0,0,1.61,3.07,2.3,2.3,0,0,0,1.86-.14,2.41,2.41,0,0,0,1.21-1.43A16.35,16.35,0,0,0,63.64,13.54Z"/></g></g></svg>